<svg xmlns="http://www.w3.org/2000/svg" xmlns:xlink="http://www.w3.org/1999/xlink" width="500" zoomAndPan="magnify" viewBox="0 0 375 374.999991" height="500" preserveAspectRatio="xMidYMid meet" version="1.0"><defs><clipPath id="0f333421bd"><path d="M -40.097656 39.632812 L -40.097656 335.550781 C -40.097656 376.972656 -6.519531 410.550781 34.902344 410.550781 L 330.824219 410.550781 C 372.242188 410.550781 405.824219 376.972656 405.824219 335.550781 L 405.824219 39.632812 C 405.824219 -1.789062 372.242188 -35.367188 330.824219 -35.367188 L 34.902344 -35.367188 C -6.519531 -35.367188 -40.097656 -1.789062 -40.097656 39.632812 Z M -40.097656 39.632812 " clip-rule="nonzero"/></clipPath><clipPath id="87cccae5d1"><path d="M 308.9375 410.90625 L 57.273438 410.90625 C 3.722656 410.90625 -40.066406 367.121094 -40.066406 313.570312 L -40.066406 61.996094 C -40.066406 8.445312 3.722656 -35.34375 57.273438 -35.34375 L 308.84375 -35.34375 C 362.394531 -35.34375 406.183594 8.445312 406.183594 61.996094 L 406.183594 313.570312 C 406.277344 367.121094 362.488281 410.90625 308.9375 410.90625 Z M 308.9375 410.90625 " clip-rule="nonzero"/></clipPath><linearGradient x1="256" gradientTransform="matrix(0.929687, 0, 0, 0.929687, -54.941744, -1944.696773)" y1="2091.775136" x2="256" gradientUnits="userSpaceOnUse" y2="2495.136542" id="006f80f878"><stop stop-opacity="1" stop-color="rgb(39.79187%, 53.443909%, 97.834778%)" offset="0"/><stop stop-opacity="1" stop-color="rgb(39.929199%, 53.302002%, 97.842407%)" offset="0.0078125"/><stop stop-opacity="1" stop-color="rgb(40.205383%, 53.018188%, 97.857666%)" offset="0.015625"/><stop stop-opacity="1" stop-color="rgb(40.480042%, 52.735901%, 97.874451%)" offset="0.0234375"/><stop stop-opacity="1" stop-color="rgb(40.756226%, 52.452087%, 97.889709%)" offset="0.03125"/><stop stop-opacity="1" stop-color="rgb(41.030884%, 52.168274%, 97.904968%)" offset="0.0390625"/><stop stop-opacity="1" stop-color="rgb(41.307068%, 51.885986%, 97.920227%)" offset="0.046875"/><stop stop-opacity="1" stop-color="rgb(41.583252%, 51.602173%, 97.935486%)" offset="0.0546875"/><stop stop-opacity="1" stop-color="rgb(41.85791%, 51.319885%, 97.950745%)" offset="0.0625"/><stop stop-opacity="1" stop-color="rgb(42.134094%, 51.036072%, 97.966003%)" offset="0.0703125"/><stop stop-opacity="1" stop-color="rgb(42.408752%, 50.753784%, 97.981262%)" offset="0.078125"/><stop stop-opacity="1" stop-color="rgb(42.684937%, 50.469971%, 97.996521%)" offset="0.0859375"/><stop stop-opacity="1" stop-color="rgb(42.959595%, 50.186157%, 98.013306%)" offset="0.09375"/><stop stop-opacity="1" stop-color="rgb(43.235779%, 49.90387%, 98.028564%)" offset="0.101563"/><stop stop-opacity="1" stop-color="rgb(43.510437%, 49.620056%, 98.043823%)" offset="0.109375"/><stop stop-opacity="1" stop-color="rgb(43.786621%, 49.337769%, 98.059082%)" offset="0.117188"/><stop stop-opacity="1" stop-color="rgb(44.061279%, 49.053955%, 98.074341%)" offset="0.125"/><stop stop-opacity="1" stop-color="rgb(44.337463%, 48.771667%, 98.0896%)" offset="0.132813"/><stop stop-opacity="1" stop-color="rgb(44.612122%, 48.487854%, 98.104858%)" offset="0.140625"/><stop stop-opacity="1" stop-color="rgb(44.888306%, 48.204041%, 98.120117%)" offset="0.148438"/><stop stop-opacity="1" stop-color="rgb(45.162964%, 47.921753%, 98.135376%)" offset="0.15625"/><stop stop-opacity="1" stop-color="rgb(45.439148%, 47.637939%, 98.152161%)" offset="0.164063"/><stop stop-opacity="1" stop-color="rgb(45.715332%, 47.355652%, 98.167419%)" offset="0.171875"/><stop stop-opacity="1" stop-color="rgb(45.98999%, 47.071838%, 98.182678%)" offset="0.179688"/><stop stop-opacity="1" stop-color="rgb(46.266174%, 46.789551%, 98.197937%)" offset="0.1875"/><stop stop-opacity="1" stop-color="rgb(46.540833%, 46.505737%, 98.213196%)" offset="0.195312"/><stop stop-opacity="1" stop-color="rgb(46.817017%, 46.221924%, 98.228455%)" offset="0.203125"/><stop stop-opacity="1" stop-color="rgb(47.091675%, 45.939636%, 98.243713%)" offset="0.210938"/><stop stop-opacity="1" stop-color="rgb(47.367859%, 45.655823%, 98.258972%)" offset="0.21875"/><stop stop-opacity="1" stop-color="rgb(47.642517%, 45.373535%, 98.274231%)" offset="0.226563"/><stop stop-opacity="1" stop-color="rgb(47.918701%, 45.089722%, 98.291016%)" offset="0.234375"/><stop stop-opacity="1" stop-color="rgb(48.193359%, 44.807434%, 98.306274%)" offset="0.242188"/><stop stop-opacity="1" stop-color="rgb(48.469543%, 44.523621%, 98.321533%)" offset="0.25"/><stop stop-opacity="1" stop-color="rgb(48.744202%, 44.241333%, 98.336792%)" offset="0.257812"/><stop stop-opacity="1" stop-color="rgb(49.020386%, 43.95752%, 98.352051%)" offset="0.265625"/><stop stop-opacity="1" stop-color="rgb(49.295044%, 43.673706%, 98.36731%)" offset="0.273438"/><stop stop-opacity="1" stop-color="rgb(49.571228%, 43.391418%, 98.382568%)" offset="0.28125"/><stop stop-opacity="1" stop-color="rgb(49.847412%, 43.107605%, 98.397827%)" offset="0.289062"/><stop stop-opacity="1" stop-color="rgb(50.12207%, 42.825317%, 98.413086%)" offset="0.296875"/><stop stop-opacity="1" stop-color="rgb(50.398254%, 42.541504%, 98.429871%)" offset="0.304688"/><stop stop-opacity="1" stop-color="rgb(50.672913%, 42.259216%, 98.445129%)" offset="0.3125"/><stop stop-opacity="1" stop-color="rgb(50.949097%, 41.975403%, 98.460388%)" offset="0.320313"/><stop stop-opacity="1" stop-color="rgb(51.223755%, 41.691589%, 98.475647%)" offset="0.328125"/><stop stop-opacity="1" stop-color="rgb(51.499939%, 41.409302%, 98.490906%)" offset="0.335938"/><stop stop-opacity="1" stop-color="rgb(51.774597%, 41.125488%, 98.506165%)" offset="0.34375"/><stop stop-opacity="1" stop-color="rgb(52.050781%, 40.843201%, 98.521423%)" offset="0.351562"/><stop stop-opacity="1" stop-color="rgb(52.325439%, 40.559387%, 98.536682%)" offset="0.359375"/><stop stop-opacity="1" stop-color="rgb(52.601624%, 40.2771%, 98.551941%)" offset="0.367188"/><stop stop-opacity="1" stop-color="rgb(52.876282%, 39.993286%, 98.568726%)" offset="0.375"/><stop stop-opacity="1" stop-color="rgb(53.152466%, 39.709473%, 98.583984%)" offset="0.382812"/><stop stop-opacity="1" stop-color="rgb(53.427124%, 39.427185%, 98.599243%)" offset="0.390625"/><stop stop-opacity="1" stop-color="rgb(53.703308%, 39.143372%, 98.614502%)" offset="0.398438"/><stop stop-opacity="1" stop-color="rgb(53.979492%, 38.861084%, 98.629761%)" offset="0.40625"/><stop stop-opacity="1" stop-color="rgb(54.25415%, 38.577271%, 98.64502%)" offset="0.414062"/><stop stop-opacity="1" stop-color="rgb(54.530334%, 38.294983%, 98.660278%)" offset="0.421875"/><stop stop-opacity="1" stop-color="rgb(54.804993%, 38.011169%, 98.675537%)" offset="0.429688"/><stop stop-opacity="1" stop-color="rgb(55.081177%, 37.727356%, 98.690796%)" offset="0.4375"/><stop stop-opacity="1" stop-color="rgb(55.355835%, 37.445068%, 98.707581%)" offset="0.445312"/><stop stop-opacity="1" stop-color="rgb(55.632019%, 37.161255%, 98.722839%)" offset="0.453125"/><stop stop-opacity="1" stop-color="rgb(55.906677%, 36.878967%, 98.738098%)" offset="0.460938"/><stop stop-opacity="1" stop-color="rgb(56.182861%, 36.595154%, 98.753357%)" offset="0.46875"/><stop stop-opacity="1" stop-color="rgb(56.45752%, 36.312866%, 98.768616%)" offset="0.476562"/><stop stop-opacity="1" stop-color="rgb(56.733704%, 36.029053%, 98.783875%)" offset="0.484375"/><stop stop-opacity="1" stop-color="rgb(57.008362%, 35.745239%, 98.799133%)" offset="0.492188"/><stop stop-opacity="1" stop-color="rgb(57.284546%, 35.462952%, 98.814392%)" offset="0.5"/><stop stop-opacity="1" stop-color="rgb(57.56073%, 35.179138%, 98.829651%)" offset="0.507812"/><stop stop-opacity="1" stop-color="rgb(57.835388%, 34.896851%, 98.846436%)" offset="0.515625"/><stop stop-opacity="1" stop-color="rgb(58.111572%, 34.613037%, 98.861694%)" offset="0.523437"/><stop stop-opacity="1" stop-color="rgb(58.38623%, 34.33075%, 98.876953%)" offset="0.53125"/><stop stop-opacity="1" stop-color="rgb(58.662415%, 34.046936%, 98.892212%)" offset="0.539063"/><stop stop-opacity="1" stop-color="rgb(58.937073%, 33.764648%, 98.907471%)" offset="0.546875"/><stop stop-opacity="1" stop-color="rgb(59.213257%, 33.480835%, 98.922729%)" offset="0.554688"/><stop stop-opacity="1" stop-color="rgb(59.487915%, 33.197021%, 98.937988%)" offset="0.5625"/><stop stop-opacity="1" stop-color="rgb(59.764099%, 32.914734%, 98.953247%)" offset="0.570312"/><stop stop-opacity="1" stop-color="rgb(60.038757%, 32.63092%, 98.968506%)" offset="0.578125"/><stop stop-opacity="1" stop-color="rgb(60.314941%, 32.348633%, 98.985291%)" offset="0.585938"/><stop stop-opacity="1" stop-color="rgb(60.5896%, 32.064819%, 99.000549%)" offset="0.59375"/><stop stop-opacity="1" stop-color="rgb(60.865784%, 31.782532%, 99.015808%)" offset="0.601562"/><stop stop-opacity="1" stop-color="rgb(61.140442%, 31.498718%, 99.031067%)" offset="0.609375"/><stop stop-opacity="1" stop-color="rgb(61.416626%, 31.214905%, 99.046326%)" offset="0.617187"/><stop stop-opacity="1" stop-color="rgb(61.69281%, 30.932617%, 99.061584%)" offset="0.625"/><stop stop-opacity="1" stop-color="rgb(61.967468%, 30.648804%, 99.076843%)" offset="0.632813"/><stop stop-opacity="1" stop-color="rgb(62.243652%, 30.366516%, 99.092102%)" offset="0.640625"/><stop stop-opacity="1" stop-color="rgb(62.518311%, 30.082703%, 99.107361%)" offset="0.648438"/><stop stop-opacity="1" stop-color="rgb(62.794495%, 29.800415%, 99.124146%)" offset="0.65625"/><stop stop-opacity="1" stop-color="rgb(63.069153%, 29.516602%, 99.139404%)" offset="0.664062"/><stop stop-opacity="1" stop-color="rgb(63.345337%, 29.232788%, 99.154663%)" offset="0.671875"/><stop stop-opacity="1" stop-color="rgb(63.619995%, 28.9505%, 99.169922%)" offset="0.679688"/><stop stop-opacity="1" stop-color="rgb(63.896179%, 28.666687%, 99.185181%)" offset="0.6875"/><stop stop-opacity="1" stop-color="rgb(64.170837%, 28.384399%, 99.200439%)" offset="0.695312"/><stop stop-opacity="1" stop-color="rgb(64.447021%, 28.100586%, 99.215698%)" offset="0.703125"/><stop stop-opacity="1" stop-color="rgb(64.72168%, 27.818298%, 99.230957%)" offset="0.710937"/><stop stop-opacity="1" stop-color="rgb(64.997864%, 27.534485%, 99.246216%)" offset="0.71875"/><stop stop-opacity="1" stop-color="rgb(65.272522%, 27.250671%, 99.263%)" offset="0.726563"/><stop stop-opacity="1" stop-color="rgb(65.548706%, 26.968384%, 99.278259%)" offset="0.734375"/><stop stop-opacity="1" stop-color="rgb(65.82489%, 26.68457%, 99.293518%)" offset="0.742188"/><stop stop-opacity="1" stop-color="rgb(66.099548%, 26.402283%, 99.308777%)" offset="0.75"/><stop stop-opacity="1" stop-color="rgb(66.375732%, 26.118469%, 99.324036%)" offset="0.757812"/><stop stop-opacity="1" stop-color="rgb(66.650391%, 25.836182%, 99.339294%)" offset="0.765625"/><stop stop-opacity="1" stop-color="rgb(66.926575%, 25.552368%, 99.354553%)" offset="0.773438"/><stop stop-opacity="1" stop-color="rgb(67.201233%, 25.268555%, 99.369812%)" offset="0.78125"/><stop stop-opacity="1" stop-color="rgb(67.477417%, 24.986267%, 99.385071%)" offset="0.789062"/><stop stop-opacity="1" stop-color="rgb(67.752075%, 24.702454%, 99.401855%)" offset="0.796875"/><stop stop-opacity="1" stop-color="rgb(68.028259%, 24.420166%, 99.417114%)" offset="0.804687"/><stop stop-opacity="1" stop-color="rgb(68.302917%, 24.136353%, 99.432373%)" offset="0.8125"/><stop stop-opacity="1" stop-color="rgb(68.579102%, 23.854065%, 99.447632%)" offset="0.820313"/><stop stop-opacity="1" stop-color="rgb(68.85376%, 23.570251%, 99.462891%)" offset="0.828125"/><stop stop-opacity="1" stop-color="rgb(69.129944%, 23.286438%, 99.478149%)" offset="0.835938"/><stop stop-opacity="1" stop-color="rgb(69.404602%, 23.00415%, 99.493408%)" offset="0.84375"/><stop stop-opacity="1" stop-color="rgb(69.680786%, 22.720337%, 99.508667%)" offset="0.851562"/><stop stop-opacity="1" stop-color="rgb(69.95697%, 22.438049%, 99.523926%)" offset="0.859375"/><stop stop-opacity="1" stop-color="rgb(70.231628%, 22.154236%, 99.54071%)" offset="0.867188"/><stop stop-opacity="1" stop-color="rgb(70.507812%, 21.871948%, 99.555969%)" offset="0.875"/><stop stop-opacity="1" stop-color="rgb(70.782471%, 21.588135%, 99.571228%)" offset="0.882812"/><stop stop-opacity="1" stop-color="rgb(71.058655%, 21.305847%, 99.586487%)" offset="0.890625"/><stop stop-opacity="1" stop-color="rgb(71.333313%, 21.022034%, 99.601746%)" offset="0.898437"/><stop stop-opacity="1" stop-color="rgb(71.609497%, 20.73822%, 99.617004%)" offset="0.90625"/><stop stop-opacity="1" stop-color="rgb(71.884155%, 20.455933%, 99.632263%)" offset="0.914063"/><stop stop-opacity="1" stop-color="rgb(72.160339%, 20.172119%, 99.647522%)" offset="0.921875"/><stop stop-opacity="1" stop-color="rgb(72.434998%, 19.889832%, 99.662781%)" offset="0.929688"/><stop stop-opacity="1" stop-color="rgb(72.711182%, 19.606018%, 99.679565%)" offset="0.9375"/><stop stop-opacity="1" stop-color="rgb(72.98584%, 19.32373%, 99.694824%)" offset="0.945312"/><stop stop-opacity="1" stop-color="rgb(73.262024%, 19.039917%, 99.710083%)" offset="0.953125"/><stop stop-opacity="1" stop-color="rgb(73.536682%, 18.756104%, 99.725342%)" offset="0.960938"/><stop stop-opacity="1" stop-color="rgb(73.812866%, 18.473816%, 99.740601%)" offset="0.96875"/><stop stop-opacity="1" stop-color="rgb(74.08905%, 18.190002%, 99.755859%)" offset="0.976562"/><stop stop-opacity="1" stop-color="rgb(74.363708%, 17.907715%, 99.771118%)" offset="0.984375"/><stop stop-opacity="1" stop-color="rgb(74.639893%, 17.623901%, 99.786377%)" offset="0.992187"/><stop stop-opacity="1" stop-color="rgb(74.914551%, 17.341614%, 99.801636%)" offset="1"/></linearGradient><clipPath id="aa315ea7df"><path d="M 56 288 L 310 288 L 310 333 L 56 333 Z M 56 288 " clip-rule="nonzero"/></clipPath><clipPath id="552b932871"><path d="M -40.097656 39.632812 L -40.097656 335.550781 C -40.097656 376.972656 -6.519531 410.550781 34.902344 410.550781 L 330.824219 410.550781 C 372.242188 410.550781 405.824219 376.972656 405.824219 335.550781 L 405.824219 39.632812 C 405.824219 -1.789062 372.242188 -35.367188 330.824219 -35.367188 L 34.902344 -35.367188 C -6.519531 -35.367188 -40.097656 -1.789062 -40.097656 39.632812 Z M -40.097656 39.632812 " clip-rule="nonzero"/></clipPath><clipPath id="d0833e60e3"><path d="M 84 228 L 134 228 L 134 297 L 84 297 Z M 84 228 " clip-rule="nonzero"/></clipPath><clipPath id="2ca1178c30"><path d="M -40.097656 39.632812 L -40.097656 335.550781 C -40.097656 376.972656 -6.519531 410.550781 34.902344 410.550781 L 330.824219 410.550781 C 372.242188 410.550781 405.824219 376.972656 405.824219 335.550781 L 405.824219 39.632812 C 405.824219 -1.789062 372.242188 -35.367188 330.824219 -35.367188 L 34.902344 -35.367188 C -6.519531 -35.367188 -40.097656 -1.789062 -40.097656 39.632812 Z M -40.097656 39.632812 " clip-rule="nonzero"/></clipPath><clipPath id="46170d260b"><path d="M 158 182 L 208 182 L 208 297 L 158 297 Z M 158 182 " clip-rule="nonzero"/></clipPath><clipPath id="6edaf40b2a"><path d="M -40.097656 39.632812 L -40.097656 335.550781 C -40.097656 376.972656 -6.519531 410.550781 34.902344 410.550781 L 330.824219 410.550781 C 372.242188 410.550781 405.824219 376.972656 405.824219 335.550781 L 405.824219 39.632812 C 405.824219 -1.789062 372.242188 -35.367188 330.824219 -35.367188 L 34.902344 -35.367188 C -6.519531 -35.367188 -40.097656 -1.789062 -40.097656 39.632812 Z M -40.097656 39.632812 " clip-rule="nonzero"/></clipPath><clipPath id="f7e9ecdefc"><path d="M 200 43 L 314 43 L 314 297 L 200 297 Z M 200 43 " clip-rule="nonzero"/></clipPath><clipPath id="a0ccd0592c"><path d="M -40.097656 39.632812 L -40.097656 335.550781 C -40.097656 376.972656 -6.519531 410.550781 34.902344 410.550781 L 330.824219 410.550781 C 372.242188 410.550781 405.824219 376.972656 405.824219 335.550781 L 405.824219 39.632812 C 405.824219 -1.789062 372.242188 -35.367188 330.824219 -35.367188 L 34.902344 -35.367188 C -6.519531 -35.367188 -40.097656 -1.789062 -40.097656 39.632812 Z M -40.097656 39.632812 " clip-rule="nonzero"/></clipPath><clipPath id="556410030c"><path d="M 52 113 L 264 113 L 264 232 L 52 232 Z M 52 113 " clip-rule="nonzero"/></clipPath><clipPath id="f138fe5f21"><path d="M -40.097656 39.632812 L -40.097656 335.550781 C -40.097656 376.972656 -6.519531 410.550781 34.902344 410.550781 L 330.824219 410.550781 C 372.242188 410.550781 405.824219 376.972656 405.824219 335.550781 L 405.824219 39.632812 C 405.824219 -1.789062 372.242188 -35.367188 330.824219 -35.367188 L 34.902344 -35.367188 C -6.519531 -35.367188 -40.097656 -1.789062 -40.097656 39.632812 Z M -40.097656 39.632812 " clip-rule="nonzero"/></clipPath><clipPath id="5f11b6d881"><path d="M 59 82 L 141 82 L 141 161 L 59 161 Z M 59 82 " clip-rule="nonzero"/></clipPath><clipPath id="f9222f839d"><path d="M -40.097656 39.632812 L -40.097656 335.550781 C -40.097656 376.972656 -6.519531 410.550781 34.902344 410.550781 L 330.824219 410.550781 C 372.242188 410.550781 405.824219 376.972656 405.824219 335.550781 L 405.824219 39.632812 C 405.824219 -1.789062 372.242188 -35.367188 330.824219 -35.367188 L 34.902344 -35.367188 C -6.519531 -35.367188 -40.097656 -1.789062 -40.097656 39.632812 Z M -40.097656 39.632812 " clip-rule="nonzero"/></clipPath></defs><rect x="-37.5" width="450" fill="#ffffff" y="-37.499999" height="449.999989" fill-opacity="1"/><rect x="-37.5" width="450" fill="#ffffff" y="-37.499999" height="449.999989" fill-opacity="1"/><g clip-path="url(#0f333421bd)"><g clip-path="url(#87cccae5d1)"><rect x="-37.5" fill="url(#006f80f878)" width="450" y="-37.499999" height="449.999989"/></g></g><g clip-path="url(#aa315ea7df)"><g clip-path="url(#552b932871)"><path fill="#ffffff" d="M 305.21875 332.441406 L 60.898438 332.441406 C 58.667969 332.441406 56.808594 330.582031 56.808594 328.351562 L 56.808594 292.28125 C 56.808594 290.046875 58.667969 288.1875 60.898438 288.1875 L 305.3125 288.1875 C 307.542969 288.1875 309.402344 290.046875 309.402344 292.28125 L 309.402344 328.351562 C 309.402344 330.582031 307.542969 332.441406 305.21875 332.441406 Z M 64.988281 324.167969 L 301.128906 324.167969 L 301.128906 296.277344 L 64.988281 296.277344 Z M 64.988281 324.167969 " fill-opacity="1" fill-rule="nonzero"/></g></g><g clip-path="url(#d0833e60e3)"><g clip-path="url(#2ca1178c30)"><path fill="#ffffff" d="M 129.695312 296.371094 L 88.601562 296.371094 C 86.371094 296.371094 84.511719 294.511719 84.511719 292.28125 L 84.511719 232.316406 C 84.511719 230.082031 86.371094 228.222656 88.601562 228.222656 L 129.695312 228.222656 C 131.925781 228.222656 133.785156 230.082031 133.785156 232.316406 L 133.785156 292.28125 C 133.878906 294.511719 132.019531 296.371094 129.695312 296.371094 Z M 92.785156 288.097656 L 125.695312 288.097656 L 125.695312 236.3125 L 92.785156 236.3125 C 92.785156 236.3125 92.785156 288.097656 92.785156 288.097656 Z M 92.785156 288.097656 " fill-opacity="1" fill-rule="nonzero"/></g></g><g clip-path="url(#46170d260b)"><g clip-path="url(#6edaf40b2a)"><path fill="#ffffff" d="M 203.605469 296.371094 L 162.511719 296.371094 C 160.28125 296.371094 158.421875 294.511719 158.421875 292.28125 L 158.421875 186.667969 C 158.421875 184.4375 160.28125 182.578125 162.511719 182.578125 L 203.605469 182.578125 C 205.835938 182.578125 207.695312 184.4375 207.695312 186.667969 L 207.695312 292.1875 C 207.695312 294.511719 205.835938 296.371094 203.605469 296.371094 Z M 166.695312 288.097656 L 199.605469 288.097656 L 199.605469 190.757812 L 166.695312 190.757812 Z M 166.695312 288.097656 " fill-opacity="1" fill-rule="nonzero"/></g></g><g clip-path="url(#f7e9ecdefc)"><g clip-path="url(#a0ccd0592c)"><path fill="#ffffff" d="M 277.421875 296.371094 L 236.328125 296.371094 C 234.097656 296.371094 232.238281 294.511719 232.238281 292.28125 L 232.238281 171.605469 C 232.238281 169.375 234.097656 167.515625 236.328125 167.515625 C 238.558594 167.515625 240.417969 169.375 240.417969 171.605469 L 240.417969 288.003906 L 273.332031 288.003906 L 273.332031 97.789062 C 273.332031 95.558594 275.191406 93.699219 277.421875 93.699219 L 298.898438 93.699219 L 256.96875 52.976562 L 214.945312 93.699219 L 236.421875 93.699219 C 238.652344 93.699219 240.511719 95.558594 240.511719 97.789062 L 240.511719 114.988281 C 240.511719 117.21875 238.652344 119.078125 236.421875 119.078125 C 234.191406 119.078125 232.332031 117.21875 232.332031 114.988281 L 232.332031 101.972656 L 204.8125 101.972656 C 203.140625 101.972656 201.652344 100.949219 201 99.460938 C 200.351562 97.882812 200.722656 96.117188 201.929688 94.90625 L 254.085938 44.332031 C 255.667969 42.75 258.175781 42.75 259.757812 44.332031 L 311.914062 94.90625 C 313.121094 96.117188 313.492188 97.882812 312.84375 99.460938 C 312.191406 101.042969 310.703125 101.972656 309.03125 101.972656 L 281.511719 101.972656 L 281.511719 292.1875 C 281.605469 294.511719 279.746094 296.371094 277.421875 296.371094 Z M 277.421875 296.371094 " fill-opacity="1" fill-rule="nonzero"/></g></g><g clip-path="url(#556410030c)"><g clip-path="url(#f138fe5f21)"><path fill="#ffffff" d="M 56.992188 231.851562 C 55.96875 231.851562 54.855469 231.476562 54.109375 230.640625 C 52.53125 229.0625 52.53125 226.457031 54.109375 224.785156 L 164.09375 114.800781 C 165.671875 113.222656 168.277344 113.222656 169.949219 114.800781 L 218.109375 163.054688 L 248.972656 132.1875 L 236.421875 132.1875 C 234.191406 132.1875 232.332031 130.328125 232.332031 128.097656 C 232.332031 125.867188 234.191406 124.007812 236.421875 124.007812 L 258.921875 124.007812 C 259.945312 124.007812 260.875 124.378906 261.617188 125.027344 C 261.804688 125.214844 261.988281 125.402344 262.175781 125.679688 C 262.640625 126.332031 262.917969 127.074219 263.011719 127.910156 C 263.011719 128.003906 263.011719 128.097656 263.011719 128.28125 L 263.011719 149.292969 C 263.011719 151.523438 261.152344 153.382812 258.921875 153.382812 C 256.691406 153.382812 254.832031 151.523438 254.832031 149.292969 L 254.832031 138.136719 L 221.082031 171.886719 C 220.339844 172.628906 219.222656 173.09375 218.199219 173.09375 C 217.085938 173.09375 216.0625 172.722656 215.320312 171.886719 L 166.976562 123.632812 L 59.875 230.734375 C 59.039062 231.476562 58.015625 231.851562 56.992188 231.851562 Z M 56.992188 231.851562 " fill-opacity="1" fill-rule="nonzero"/></g></g><g clip-path="url(#5f11b6d881)"><g clip-path="url(#f9222f839d)"><path fill="#ffffff" d="M 77.351562 160.820312 C 76.515625 160.820312 75.679688 160.542969 74.9375 160.078125 C 73.542969 159.148438 72.984375 157.382812 73.355469 155.707031 L 79.027344 132.1875 L 60.527344 116.570312 C 59.222656 115.453125 58.757812 113.78125 59.316406 112.199219 C 59.875 110.617188 61.269531 109.503906 62.851562 109.410156 L 87.023438 107.550781 L 96.226562 85.144531 C 96.875 83.65625 98.363281 82.636719 100.039062 82.636719 C 101.710938 82.636719 103.199219 83.65625 103.847656 85.144531 L 113.054688 107.550781 L 137.226562 109.410156 C 138.898438 109.503906 140.292969 110.617188 140.757812 112.199219 C 141.316406 113.78125 140.757812 115.453125 139.550781 116.570312 L 121.234375 132.1875 L 126.90625 155.707031 C 127.277344 157.382812 126.71875 158.960938 125.324219 160.078125 C 123.929688 161.007812 122.164062 161.101562 120.769531 160.265625 L 100.128906 147.527344 L 79.492188 160.265625 C 78.839844 160.636719 78.097656 160.820312 77.351562 160.820312 Z M 73.542969 116.753906 L 86.277344 127.632812 C 87.488281 128.65625 87.953125 130.234375 87.578125 131.722656 L 83.675781 147.992188 L 97.992188 139.160156 C 99.292969 138.324219 100.96875 138.324219 102.359375 139.160156 L 116.679688 147.992188 L 112.773438 131.722656 C 112.402344 130.234375 112.867188 128.65625 114.074219 127.632812 L 126.8125 116.753906 L 110.171875 115.453125 C 108.589844 115.359375 107.289062 114.335938 106.636719 112.941406 L 100.222656 97.417969 L 93.808594 112.941406 C 93.15625 114.429688 91.855469 115.359375 90.277344 115.453125 Z M 73.542969 116.753906 " fill-opacity="1" fill-rule="nonzero"/></g></g></svg>